<mxfile host="app.diagrams.net" agent="Mozilla/5.0 (Windows NT 10.0; Win64; x64) AppleWebKit/537.36 (KHTML, like Gecko) Chrome/128.0.0.0 Safari/537.36 Edg/128.0.0.0" version="24.7.14">
  <diagram name="Page-1" id="aCf4mz3CWXnx07u85e5F">
    <mxGraphModel dx="2276" dy="747" grid="1" gridSize="10" guides="1" tooltips="1" connect="1" arrows="1" fold="1" page="1" pageScale="1" pageWidth="850" pageHeight="1100" math="0" shadow="0">
      <root>
        <mxCell id="0" />
        <mxCell id="1" parent="0" />
        <mxCell id="C3LEZmclD4hV7QYWi0aZ-1" value="Region" style="shape=mxgraph.ibm.box;prType=region;fontStyle=0;verticalAlign=top;align=left;spacingLeft=32;spacingTop=4;fillColor=none;rounded=0;whiteSpace=wrap;html=1;strokeColor=#919191;strokeWidth=2;dashed=0;container=1;spacing=-4;collapsible=0;expand=0;recursiveResize=0;" parent="1" vertex="1">
          <mxGeometry x="110" y="90" width="790" height="500" as="geometry" />
        </mxCell>
        <mxCell id="C3LEZmclD4hV7QYWi0aZ-2" value="VPC" style="sketch=0;outlineConnect=0;gradientColor=none;html=1;whiteSpace=wrap;fontSize=12;fontStyle=0;shape=mxgraph.aws4.group;grIcon=mxgraph.aws4.group_vpc;strokeColor=#879196;fillColor=none;verticalAlign=top;align=left;spacingLeft=30;fontColor=#879196;dashed=0;" parent="C3LEZmclD4hV7QYWi0aZ-1" vertex="1">
          <mxGeometry x="90" y="30" width="510" height="420" as="geometry" />
        </mxCell>
        <mxCell id="C3LEZmclD4hV7QYWi0aZ-3" value="Internet&#xa;gateway" style="sketch=0;outlineConnect=0;fontColor=#232F3E;gradientColor=none;strokeColor=#232F3E;fillColor=#ffffff;dashed=0;verticalLabelPosition=bottom;verticalAlign=top;align=center;html=1;fontSize=12;fontStyle=0;aspect=fixed;shape=mxgraph.aws4.resourceIcon;resIcon=mxgraph.aws4.internet_gateway;" parent="C3LEZmclD4hV7QYWi0aZ-1" vertex="1">
          <mxGeometry x="60" y="190" width="60" height="60" as="geometry" />
        </mxCell>
        <mxCell id="C3LEZmclD4hV7QYWi0aZ-4" value="Application Load Balancer" style="sketch=0;outlineConnect=0;fontColor=#232F3E;gradientColor=none;strokeColor=#ffffff;fillColor=#232F3E;dashed=0;verticalLabelPosition=middle;verticalAlign=bottom;align=center;html=1;whiteSpace=wrap;fontSize=10;fontStyle=1;spacing=3;shape=mxgraph.aws4.productIcon;prIcon=mxgraph.aws4.application_load_balancer;" parent="C3LEZmclD4hV7QYWi0aZ-1" vertex="1">
          <mxGeometry x="190" y="180" width="80" height="110" as="geometry" />
        </mxCell>
        <mxCell id="C3LEZmclD4hV7QYWi0aZ-5" value="Public subnet" style="points=[[0,0],[0.25,0],[0.5,0],[0.75,0],[1,0],[1,0.25],[1,0.5],[1,0.75],[1,1],[0.75,1],[0.5,1],[0.25,1],[0,1],[0,0.75],[0,0.5],[0,0.25]];outlineConnect=0;gradientColor=none;html=1;whiteSpace=wrap;fontSize=12;fontStyle=0;container=1;pointerEvents=0;collapsible=0;recursiveResize=0;shape=mxgraph.aws4.group;grIcon=mxgraph.aws4.group_security_group;grStroke=0;strokeColor=#248814;fillColor=#E9F3E6;verticalAlign=top;align=left;spacingLeft=30;fontColor=#248814;dashed=0;" parent="C3LEZmclD4hV7QYWi0aZ-1" vertex="1">
          <mxGeometry x="165" y="40" width="130" height="130" as="geometry" />
        </mxCell>
        <mxCell id="C3LEZmclD4hV7QYWi0aZ-7" value="NAT gateway" style="sketch=0;outlineConnect=0;fontColor=#232F3E;gradientColor=none;strokeColor=#232F3E;fillColor=#ffffff;dashed=0;verticalLabelPosition=bottom;verticalAlign=top;align=center;html=1;fontSize=12;fontStyle=0;aspect=fixed;shape=mxgraph.aws4.resourceIcon;resIcon=mxgraph.aws4.nat_gateway;" parent="C3LEZmclD4hV7QYWi0aZ-5" vertex="1">
          <mxGeometry x="35" y="35" width="60" height="60" as="geometry" />
        </mxCell>
        <mxCell id="C3LEZmclD4hV7QYWi0aZ-26" value="" style="endArrow=classic;html=1;rounded=0;" parent="C3LEZmclD4hV7QYWi0aZ-5" target="C3LEZmclD4hV7QYWi0aZ-3" edge="1">
          <mxGeometry width="50" height="50" relative="1" as="geometry">
            <mxPoint x="35" y="76.25" as="sourcePoint" />
            <mxPoint x="-55" y="53.749999999999886" as="targetPoint" />
          </mxGeometry>
        </mxCell>
        <mxCell id="C3LEZmclD4hV7QYWi0aZ-6" value="Public subnet" style="points=[[0,0],[0.25,0],[0.5,0],[0.75,0],[1,0],[1,0.25],[1,0.5],[1,0.75],[1,1],[0.75,1],[0.5,1],[0.25,1],[0,1],[0,0.75],[0,0.5],[0,0.25]];outlineConnect=0;gradientColor=none;html=1;whiteSpace=wrap;fontSize=12;fontStyle=0;container=1;pointerEvents=0;collapsible=0;recursiveResize=0;shape=mxgraph.aws4.group;grIcon=mxgraph.aws4.group_security_group;grStroke=0;strokeColor=#248814;fillColor=#E9F3E6;verticalAlign=top;align=left;spacingLeft=30;fontColor=#248814;dashed=0;" parent="C3LEZmclD4hV7QYWi0aZ-1" vertex="1">
          <mxGeometry x="165" y="300" width="130" height="130" as="geometry" />
        </mxCell>
        <mxCell id="C3LEZmclD4hV7QYWi0aZ-8" value="NAT gateway" style="sketch=0;outlineConnect=0;fontColor=#232F3E;gradientColor=none;strokeColor=#232F3E;fillColor=#ffffff;dashed=0;verticalLabelPosition=bottom;verticalAlign=top;align=center;html=1;fontSize=12;fontStyle=0;aspect=fixed;shape=mxgraph.aws4.resourceIcon;resIcon=mxgraph.aws4.nat_gateway;" parent="C3LEZmclD4hV7QYWi0aZ-6" vertex="1">
          <mxGeometry x="35" y="30" width="60" height="60" as="geometry" />
        </mxCell>
        <mxCell id="C3LEZmclD4hV7QYWi0aZ-27" value="" style="endArrow=classic;html=1;rounded=0;" parent="C3LEZmclD4hV7QYWi0aZ-6" target="C3LEZmclD4hV7QYWi0aZ-3" edge="1">
          <mxGeometry width="50" height="50" relative="1" as="geometry">
            <mxPoint x="35" y="60" as="sourcePoint" />
            <mxPoint x="85" y="10" as="targetPoint" />
          </mxGeometry>
        </mxCell>
        <mxCell id="C3LEZmclD4hV7QYWi0aZ-9" value="Private subnet" style="points=[[0,0],[0.25,0],[0.5,0],[0.75,0],[1,0],[1,0.25],[1,0.5],[1,0.75],[1,1],[0.75,1],[0.5,1],[0.25,1],[0,1],[0,0.75],[0,0.5],[0,0.25]];outlineConnect=0;gradientColor=none;html=1;whiteSpace=wrap;fontSize=12;fontStyle=0;container=1;pointerEvents=0;collapsible=0;recursiveResize=0;shape=mxgraph.aws4.group;grIcon=mxgraph.aws4.group_security_group;grStroke=0;strokeColor=#147EBA;fillColor=#E6F2F8;verticalAlign=top;align=left;spacingLeft=30;fontColor=#147EBA;dashed=0;" parent="C3LEZmclD4hV7QYWi0aZ-1" vertex="1">
          <mxGeometry x="350" y="40" width="200" height="150" as="geometry" />
        </mxCell>
        <mxCell id="C3LEZmclD4hV7QYWi0aZ-10" value="Amazon ECS" style="sketch=0;outlineConnect=0;fontColor=#232F3E;gradientColor=none;strokeColor=#ffffff;fillColor=#232F3E;dashed=0;verticalLabelPosition=middle;verticalAlign=bottom;align=center;html=1;whiteSpace=wrap;fontSize=10;fontStyle=1;spacing=3;shape=mxgraph.aws4.productIcon;prIcon=mxgraph.aws4.ecs;" parent="C3LEZmclD4hV7QYWi0aZ-9" vertex="1">
          <mxGeometry x="60" y="30" width="80" height="100" as="geometry" />
        </mxCell>
        <mxCell id="C3LEZmclD4hV7QYWi0aZ-24" value="" style="edgeStyle=orthogonalEdgeStyle;html=1;endArrow=none;elbow=vertical;startArrow=block;startFill=1;strokeColor=#545B64;rounded=0;" parent="C3LEZmclD4hV7QYWi0aZ-9" edge="1">
          <mxGeometry width="100" relative="1" as="geometry">
            <mxPoint x="-90" y="64.5" as="sourcePoint" />
            <mxPoint x="60" y="64.5" as="targetPoint" />
            <Array as="points">
              <mxPoint x="-50" y="64.5" />
              <mxPoint x="-50" y="64.5" />
            </Array>
          </mxGeometry>
        </mxCell>
        <mxCell id="C3LEZmclD4hV7QYWi0aZ-28" value="" style="endArrow=classic;startArrow=classic;html=1;rounded=0;" parent="C3LEZmclD4hV7QYWi0aZ-9" target="C3LEZmclD4hV7QYWi0aZ-12" edge="1">
          <mxGeometry width="50" height="50" relative="1" as="geometry">
            <mxPoint x="140" y="130" as="sourcePoint" />
            <mxPoint x="190" y="80" as="targetPoint" />
          </mxGeometry>
        </mxCell>
        <mxCell id="C3LEZmclD4hV7QYWi0aZ-11" value="Amazon DynamoDB" style="sketch=0;outlineConnect=0;fontColor=#232F3E;gradientColor=none;strokeColor=#ffffff;fillColor=#232F3E;dashed=0;verticalLabelPosition=middle;verticalAlign=bottom;align=center;html=1;whiteSpace=wrap;fontSize=10;fontStyle=1;spacing=3;shape=mxgraph.aws4.productIcon;prIcon=mxgraph.aws4.dynamodb;" parent="C3LEZmclD4hV7QYWi0aZ-1" vertex="1">
          <mxGeometry x="700" y="195" width="80" height="110" as="geometry" />
        </mxCell>
        <mxCell id="C3LEZmclD4hV7QYWi0aZ-14" value="" style="group" parent="C3LEZmclD4hV7QYWi0aZ-1" vertex="1" connectable="0">
          <mxGeometry x="570" y="199" width="69" height="106" as="geometry" />
        </mxCell>
        <mxCell id="C3LEZmclD4hV7QYWi0aZ-12" value="" style="outlineConnect=0;dashed=0;verticalLabelPosition=bottom;verticalAlign=top;align=center;html=1;shape=mxgraph.aws3.endpoints;fillColor=#F58536;gradientColor=none;" parent="C3LEZmclD4hV7QYWi0aZ-14" vertex="1">
          <mxGeometry width="69" height="72" as="geometry" />
        </mxCell>
        <mxCell id="C3LEZmclD4hV7QYWi0aZ-13" value="DynamoDB Endpoint" style="text;html=1;strokeColor=none;fillColor=none;align=center;verticalAlign=middle;whiteSpace=wrap;rounded=0;" parent="C3LEZmclD4hV7QYWi0aZ-14" vertex="1">
          <mxGeometry x="4.5" y="76" width="60" height="30" as="geometry" />
        </mxCell>
        <mxCell id="C3LEZmclD4hV7QYWi0aZ-15" value="Private subnet" style="points=[[0,0],[0.25,0],[0.5,0],[0.75,0],[1,0],[1,0.25],[1,0.5],[1,0.75],[1,1],[0.75,1],[0.5,1],[0.25,1],[0,1],[0,0.75],[0,0.5],[0,0.25]];outlineConnect=0;gradientColor=none;html=1;whiteSpace=wrap;fontSize=12;fontStyle=0;container=1;pointerEvents=0;collapsible=0;recursiveResize=0;shape=mxgraph.aws4.group;grIcon=mxgraph.aws4.group_security_group;grStroke=0;strokeColor=#147EBA;fillColor=#E6F2F8;verticalAlign=top;align=left;spacingLeft=30;fontColor=#147EBA;dashed=0;" parent="C3LEZmclD4hV7QYWi0aZ-1" vertex="1">
          <mxGeometry x="350" y="280" width="200" height="150" as="geometry" />
        </mxCell>
        <mxCell id="C3LEZmclD4hV7QYWi0aZ-16" value="Amazon ECS" style="sketch=0;outlineConnect=0;fontColor=#232F3E;gradientColor=none;strokeColor=#ffffff;fillColor=#232F3E;dashed=0;verticalLabelPosition=middle;verticalAlign=bottom;align=center;html=1;whiteSpace=wrap;fontSize=10;fontStyle=1;spacing=3;shape=mxgraph.aws4.productIcon;prIcon=mxgraph.aws4.ecs;" parent="C3LEZmclD4hV7QYWi0aZ-15" vertex="1">
          <mxGeometry x="60" y="30" width="80" height="100" as="geometry" />
        </mxCell>
        <mxCell id="C3LEZmclD4hV7QYWi0aZ-19" value="" style="edgeStyle=orthogonalEdgeStyle;html=1;endArrow=block;elbow=vertical;startArrow=none;endFill=1;strokeColor=#545B64;rounded=0;" parent="C3LEZmclD4hV7QYWi0aZ-1" edge="1">
          <mxGeometry width="100" relative="1" as="geometry">
            <mxPoint x="120" y="219.5" as="sourcePoint" />
            <mxPoint x="190" y="220" as="targetPoint" />
          </mxGeometry>
        </mxCell>
        <mxCell id="C3LEZmclD4hV7QYWi0aZ-20" value="" style="edgeStyle=orthogonalEdgeStyle;html=1;endArrow=block;elbow=vertical;startArrow=none;endFill=1;strokeColor=#545B64;rounded=0;" parent="C3LEZmclD4hV7QYWi0aZ-1" target="C3LEZmclD4hV7QYWi0aZ-10" edge="1">
          <mxGeometry width="100" relative="1" as="geometry">
            <mxPoint x="280" y="219.5" as="sourcePoint" />
            <mxPoint x="380" y="219.5" as="targetPoint" />
          </mxGeometry>
        </mxCell>
        <mxCell id="C3LEZmclD4hV7QYWi0aZ-21" value="" style="edgeStyle=orthogonalEdgeStyle;html=1;endArrow=block;elbow=vertical;startArrow=none;endFill=1;strokeColor=#545B64;rounded=0;" parent="C3LEZmclD4hV7QYWi0aZ-1" edge="1">
          <mxGeometry width="100" relative="1" as="geometry">
            <mxPoint x="450" y="219.5" as="sourcePoint" />
            <mxPoint x="450" y="270" as="targetPoint" />
          </mxGeometry>
        </mxCell>
        <mxCell id="C3LEZmclD4hV7QYWi0aZ-23" value="" style="edgeStyle=orthogonalEdgeStyle;html=1;endArrow=none;elbow=vertical;startArrow=block;startFill=1;strokeColor=#545B64;rounded=0;" parent="C3LEZmclD4hV7QYWi0aZ-1" source="C3LEZmclD4hV7QYWi0aZ-8" target="C3LEZmclD4hV7QYWi0aZ-16" edge="1">
          <mxGeometry width="100" relative="1" as="geometry">
            <mxPoint x="290" y="364.5" as="sourcePoint" />
            <mxPoint x="390" y="364.5" as="targetPoint" />
            <Array as="points">
              <mxPoint x="300" y="360" />
              <mxPoint x="300" y="360" />
            </Array>
          </mxGeometry>
        </mxCell>
        <mxCell id="C3LEZmclD4hV7QYWi0aZ-29" value="" style="endArrow=classic;startArrow=classic;html=1;rounded=0;exitX=0.784;exitY=0.714;exitDx=0;exitDy=0;exitPerimeter=0;" parent="C3LEZmclD4hV7QYWi0aZ-1" source="C3LEZmclD4hV7QYWi0aZ-2" edge="1">
          <mxGeometry width="50" height="50" relative="1" as="geometry">
            <mxPoint x="500" y="217.5" as="sourcePoint" />
            <mxPoint x="580" y="262.5" as="targetPoint" />
          </mxGeometry>
        </mxCell>
        <mxCell id="C3LEZmclD4hV7QYWi0aZ-30" value="" style="edgeStyle=orthogonalEdgeStyle;html=1;endArrow=block;elbow=vertical;startArrow=block;startFill=1;endFill=1;strokeColor=#545B64;rounded=0;" parent="C3LEZmclD4hV7QYWi0aZ-1" edge="1">
          <mxGeometry width="100" relative="1" as="geometry">
            <mxPoint x="640" y="240" as="sourcePoint" />
            <mxPoint x="700" y="240" as="targetPoint" />
          </mxGeometry>
        </mxCell>
        <mxCell id="C3LEZmclD4hV7QYWi0aZ-31" value="users" style="sketch=0;outlineConnect=0;gradientColor=none;fontColor=#545B64;strokeColor=none;fillColor=#879196;dashed=0;verticalLabelPosition=bottom;verticalAlign=top;align=center;html=1;fontSize=12;fontStyle=0;aspect=fixed;shape=mxgraph.aws4.illustration_users;pointerEvents=1" parent="1" vertex="1">
          <mxGeometry x="-10" y="90" width="100" height="100" as="geometry" />
        </mxCell>
        <mxCell id="2mT4hJTFJCS7-FjS-mQA-1" value="" style="sketch=0;points=[[0,0,0],[0.25,0,0],[0.5,0,0],[0.75,0,0],[1,0,0],[0,1,0],[0.25,1,0],[0.5,1,0],[0.75,1,0],[1,1,0],[0,0.25,0],[0,0.5,0],[0,0.75,0],[1,0.25,0],[1,0.5,0],[1,0.75,0]];outlineConnect=0;fontColor=#232F3E;fillColor=#8C4FFF;strokeColor=#ffffff;dashed=0;verticalLabelPosition=bottom;verticalAlign=top;align=center;html=1;fontSize=12;fontStyle=0;aspect=fixed;shape=mxgraph.aws4.resourceIcon;resIcon=mxgraph.aws4.route_53;" vertex="1" parent="1">
          <mxGeometry x="1" y="273" width="78" height="78" as="geometry" />
        </mxCell>
        <mxCell id="2mT4hJTFJCS7-FjS-mQA-2" value="" style="endArrow=classic;startArrow=classic;html=1;rounded=0;entryX=0.5;entryY=0;entryDx=0;entryDy=0;entryPerimeter=0;" edge="1" parent="1" source="C3LEZmclD4hV7QYWi0aZ-31" target="2mT4hJTFJCS7-FjS-mQA-1">
          <mxGeometry width="50" height="50" relative="1" as="geometry">
            <mxPoint x="-140" y="240" as="sourcePoint" />
            <mxPoint x="-80" y="315" as="targetPoint" />
          </mxGeometry>
        </mxCell>
        <mxCell id="2mT4hJTFJCS7-FjS-mQA-3" value="" style="endArrow=classic;startArrow=classic;html=1;rounded=0;entryX=0.05;entryY=0.55;entryDx=0;entryDy=0;entryPerimeter=0;" edge="1" parent="1" source="2mT4hJTFJCS7-FjS-mQA-1" target="C3LEZmclD4hV7QYWi0aZ-3">
          <mxGeometry width="50" height="50" relative="1" as="geometry">
            <mxPoint x="-129" y="318" as="sourcePoint" />
            <mxPoint x="-40" y="319" as="targetPoint" />
          </mxGeometry>
        </mxCell>
      </root>
    </mxGraphModel>
  </diagram>
</mxfile>
